# xmcd
#
# Track frame offsets:
#	150
#	14325
#	30412
#	48525
#	61800
#	79075
#	87875
#	104337
#	118275
#	127575
#	140037
#	154575
#	169487
#	182162
#	198900
#	211937
#	223275
#	243375
#	257900
#	266700
#
# Disc length: 3686 seconds
#
# Revision: 1
# Processed by: cddbd v1.5PL3 Copyright (c) Steve Scherf et al.
# Submitted via: CDex 1.50Beta5
#
DISCID=220e6414
DTITLE=Yves Montand - Wonderful Melodies
DYEAR=1900
DGENRE=
TTITLE0=Les Feuilles Mortes
TTITLE1=C'est Si Bon
TTITLE2=Le Chevalier De Paris
TTITLE3=Sous Le Ciel De Paris
TTITLE4=Mon Manege A Moi
TTITLE5=Luna Park
TTITLE6=Marie Marie
TTITLE7=A Paris
TTITLE8=Grands Boulevards
TTITLE9=L'etrangere
TTITLE10=Paris-Canaille
TTITLE11=La Vie En Rose
TTITLE12=L'ame Des Poetes
TTITLE13=A Paris Dans Chaque Faubourg
TTITLE14=Quend On S'balade
TTITLE15=Le Goualante Du Pauvre Jean
TTITLE16=Sa Jeunesse
TTITLE17=Le Musicien
TTITLE18=Bella Ciao
TTITLE19=Mon Frere
EXTD=
EXTT0=
EXTT1=
EXTT2=
EXTT3=
EXTT4=
EXTT5=
EXTT6=
EXTT7=
EXTT8=
EXTT9=
EXTT10=
EXTT11=
EXTT12=
EXTT13=
EXTT14=
EXTT15=
EXTT16=
EXTT17=
EXTT18=
EXTT19=
PLAYORDER=
